<svg xmlns="http://www.w3.org/2000/svg" width="115.323" height="79.827" viewBox="0 0 115.323 79.827">
  <g id="LOGO_HEADER_2" transform="translate(-291.648 -55.506)">
    <path id="Trazado_1038" data-name="Trazado 1038" d="M375.628,63.666q.2-.976.4-1.951a.445.445,0,0,0-.491-.579,6.428,6.428,0,0,0-3.387,1.233,1.727,1.727,0,0,0-.518.529c-.414.732-.838,1.459-1.265,2.183a.873.873,0,0,1-.247.272.657.657,0,0,1-.845-.108.67.67,0,0,1-.037-.868q.565-.767,1.131-1.533a.452.452,0,0,0,.075-.415c-.054-.2-.105-.391-.157-.586q-.276-1.041-.554-2.082a.526.526,0,0,0-.078-.178.423.423,0,0,0-.611-.1c-.151.1-.295.209-.442.313-.1.071-.2.14-.3.21a6.754,6.754,0,0,0-1.559-2.143.435.435,0,0,0-.589-.047c-.066.041-.129.087-.195.129l-.578.374c-.1-.129-.186-.253-.285-.369a4.685,4.685,0,0,0-1.033-.869c-.415-.271-.837-.528-1.25-.8a1.17,1.17,0,0,1-.5-.546.405.405,0,0,0-.515-.2.426.426,0,0,0-.3.473.617.617,0,0,1-.044.383c-.156.329-.311.66-.482.981a5.546,5.546,0,0,0-.845,2.352L360,59.713c-.271-.017-.541-.036-.812-.05a.434.434,0,0,0-.468.322A6.761,6.761,0,0,0,358.4,62.4c0,.073.012.147.018.227-.039,0-.069,0-.1-.005-.249-.024-.5-.048-.744-.073a.448.448,0,0,0-.518.61q.357,1.32.7,2.641a.461.461,0,0,0,.272.323l.65.285,1.086.479a.645.645,0,0,1,.415.535.636.636,0,0,1-.293.645.649.649,0,0,1-.725.012c-.733-.425-1.466-.848-2.2-1.277a1.2,1.2,0,0,0-.442-.165c-.139-.02-.276-.045-.416-.059a6.185,6.185,0,0,0-2.534.282,7.854,7.854,0,0,0-.927.372.432.432,0,0,0-.113.695c.483.545.971,1.086,1.436,1.646a.913.913,0,0,1,0,1.245.44.44,0,0,0,.151.736c.242.108.485.214.728.32l.853.377-.1.031c-.168.045-.338.086-.5.135a.438.438,0,0,0-.232.691c.138.188.273.38.418.562.432.548.862,1.1,1.3,1.637a6.248,6.248,0,0,0,.866.888.95.95,0,0,0,.675.246c.38-.02.759-.028,1.139-.032a.565.565,0,0,1,.239.061.167.167,0,0,1,.053.279,2.836,2.836,0,0,1-.3.289.66.66,0,0,0-.293.527,3.939,3.939,0,0,0,.022.474.23.23,0,0,1-.087.23q-.317.246-.639.484a.193.193,0,0,0-.063.261.68.68,0,0,0,.475.3c.374.092.757.156,1.137.224a.307.307,0,0,1,.191.1.787.787,0,0,0,.812.272,7.832,7.832,0,0,0,1.524-.464c.179-.086.371-.145.557-.216a.2.2,0,0,1,.2.026,2.333,2.333,0,0,0,.328.179.425.425,0,0,0,.488-.08,3.531,3.531,0,0,0,.63-.7c.121-.2.25-.388.37-.584.18-.295.376-.582.528-.891.233-.475.43-.967.654-1.447.086-.185.2-.357.3-.534a.084.084,0,0,1,.152-.014.506.506,0,0,1,.092.178q.3,1.113.595,2.227c.115.433.254.862.335,1.3.105.569.168,1.146.241,1.721.037.29.042.585.088.873.039.242.116.321.349.3a.7.7,0,0,1,.295.029.531.531,0,0,0,.456-.024.565.565,0,0,0,.3-.753,6.1,6.1,0,0,0-.258-.57c-.11-.248-.235-.491-.321-.747-.1-.312-.174-.636-.259-.955q-.408-1.534-.815-3.068c-.059-.219-.117-.439-.173-.659-.015-.057-.029-.125.048-.147a.343.343,0,0,1,.271.012c.516.272,1.032.543,1.553.8a4.755,4.755,0,0,0,.885.393,5.543,5.543,0,0,0,1.479.3.648.648,0,0,1,.176.018.254.254,0,0,0,.268-.088c.081-.086.163-.172.237-.264a.2.2,0,0,1,.185-.079c.51.033,1.021.053,1.53.1a.68.68,0,0,0,.74-.4.183.183,0,0,1,.192-.111c.2,0,.393,0,.589-.013a.61.61,0,0,0,.237-.074,1.52,1.52,0,0,0,.257-.185c.217-.186.434-.374.643-.57a1.038,1.038,0,0,0,.224-.273,4.128,4.128,0,0,1,.412-.551,4.61,4.61,0,0,0,.334-.537.183.183,0,0,0-.1-.269.727.727,0,0,0-.2-.048,1.562,1.562,0,0,0-.261-.017.6.6,0,0,1-.581-.418.381.381,0,0,0-.38-.239c-.137,0-.274,0-.411,0a.41.41,0,0,1-.44-.344c-.027-.09-.015-.157.078-.2a.8.8,0,0,0,.421-.478,4.645,4.645,0,0,0,.16-.478,26.482,26.482,0,0,0,.575-3.568.431.431,0,0,0-.553-.455c-.192.048-.382.1-.6.156.034-.05.054-.08.075-.109.311-.42.613-.848.935-1.259a.459.459,0,0,0-.241-.747.787.787,0,0,1-.541-.5A1.256,1.256,0,0,1,375.628,63.666ZM363.4,71.842c-.1-.2-.2-.4-.284-.606a.973.973,0,0,1-.029-.268l.045-.015a1.851,1.851,0,0,1,.12.172c.111.2.219.4.325.608.033.062.05.129-.025.171S363.427,71.9,363.4,71.842Zm-2.327-2.157a.6.6,0,0,1-.011-.074c-.008-.056-.008-.118.058-.127a.369.369,0,0,1,.143.039l0,.025a1.387,1.387,0,0,1,.046.141,3.92,3.92,0,0,0,.549,1.23c.085.141.184.273.271.414a.732.732,0,0,1,.052.151c-.071.012-.15.049-.21.029a.437.437,0,0,1-.184-.148c-.069-.088-.116-.192-.181-.282A4.284,4.284,0,0,1,361.07,69.685Zm-2.265-.494c-.012-.06-.037-.117-.054-.176,0,0,.007-.008.016-.018a.152.152,0,0,1,.04.03l.649.992c.005.008.013.016.013.024,0,.055,0,.11,0,.165-.048-.02-.112-.025-.14-.06A2.245,2.245,0,0,1,358.806,69.191Zm-2.092,1.826c-.005-.03.037-.072.064-.1a.065.065,0,0,1,.014-.011h0c.016-.009.036-.013.053-.02a.611.611,0,0,1,.287-.1c.02,0,.039,0,.059,0h.053a.219.219,0,0,1,.137.041.192.192,0,0,1,.042.137c0,.017-.066.039-.1.044-.162.023-.325.036-.486.059C356.779,71.068,356.724,71.082,356.713,71.017Zm.745,1.544a1.037,1.037,0,0,1,.4-.272,2.628,2.628,0,0,1,1.082-.154l.028,0c.1.01.173.066.159.125-.02.086-.1.088-.165.087a4.067,4.067,0,0,0-1.114.156c-.125.034-.254.053-.381.079Zm.864,1.89a.72.72,0,0,1-.159.012.741.741,0,0,1,.274-.25,6.6,6.6,0,0,1,1.272-.562,4.673,4.673,0,0,1,1.367-.237c.034,0,.069,0,.1,0,.061,0,.111.028.12.1a.113.113,0,0,1-.088.127.4.4,0,0,1-.109.023,6.211,6.211,0,0,0-2.26.609A5.377,5.377,0,0,1,358.322,74.451Zm4.505,1.234c.051-.005.1-.031.153-.037.086-.01.126.037.088.111a.4.4,0,0,1-.137.155.8.8,0,0,1-.44.1,3.02,3.02,0,0,1-.821-.1,1.086,1.086,0,0,1-.124-.056.592.592,0,0,1,.374-.083Q362.374,75.733,362.828,75.686ZM361.985,77c.036.07-.007.115-.063.144a1.559,1.559,0,0,1-.8.162.466.466,0,0,1-.143-.053v-.032c.045-.018.09-.038.137-.051.242-.068.486-.132.727-.2C361.9,76.95,361.952,76.936,361.985,77Zm2.558-.407a1.792,1.792,0,0,1-.288,1.074,2.911,2.911,0,0,1-.216.268.087.087,0,0,1-.052.015l-.019,0c0-.011-.005-.023-.007-.035a.057.057,0,0,1,0-.031c.064-.162.134-.32.2-.481a2.323,2.323,0,0,0,.172-.921.156.156,0,0,1,.07-.113c.023-.013.074.02.111.033A1.33,1.33,0,0,1,364.543,76.594Zm.979-2.168a.268.268,0,0,1-.084.086,3.324,3.324,0,0,0-1.009.943c-.331.429-.644.873-.992,1.286a6.324,6.324,0,0,1-1.914,1.488c-.186.1-.381.182-.572.273l-.014-.021c.253-.181.5-.366.759-.542a8.464,8.464,0,0,0,2.143-2.1c.241-.339.506-.663.777-.979a1.982,1.982,0,0,1,.656-.5.488.488,0,0,1,.2-.047C365.539,74.308,365.563,74.364,365.522,74.426Zm-3.722-.939c-.029-.094-.011-.129.087-.16.033-.01.064-.023.1-.035a.15.15,0,0,1,.2.1c.018.078-.026.125-.1.117S361.9,73.494,361.8,73.487Zm3.3-.4c0,.033-.026.069-.038.1a.372.372,0,0,1-.078.019c-.168,0-.336,0-.5,0a7.758,7.758,0,0,1-1.662-.374c-.371-.094-.742-.2-1.1-.315a4.706,4.706,0,0,1-.631-.279,16.5,16.5,0,0,1-2.332-1.463c-.518-.379-1.055-.731-1.579-1.1-.234-.165-.46-.342-.686-.517-.026-.02-.027-.07-.04-.107.039,0,.086-.019.113,0a32.07,32.07,0,0,1,2.922,1.895,12.8,12.8,0,0,0,1.924,1.147,4.893,4.893,0,0,0,.859.312c.376.113.758.206,1.136.309.246.067.489.151.739.2.215.042.438.046.657.071a1.41,1.41,0,0,1,.228.042C365.054,73.033,365.1,73.065,365.1,73.09Zm7.586-8.063c.019-.2.034-.4.064-.6.009-.056.068-.154.089-.151.083.015.064.1.06.16q-.021.326-.056.651a.126.126,0,0,1-.067.083c-.018.009-.055-.023-.08-.035A.623.623,0,0,1,372.683,65.027Zm-1.355,3.04a.585.585,0,0,1-.01-.176c.03-.544.063-1.087.09-1.632.007-.149-.005-.3,0-.448a1.691,1.691,0,0,1,.021-.181l.048-.011a2.5,2.5,0,0,1,.122.294,2.592,2.592,0,0,1,.047.863c-.026.37-.06.739-.094,1.108a.617.617,0,0,1-.044.189.126.126,0,0,1-.1.065A.115.115,0,0,1,371.328,68.067Zm-5.487-6.488c.214-.269.458-.516.69-.772a.844.844,0,0,1,.1-.082l.023.017c-.567.85-.934,1.8-1.414,2.7h-.035a.736.736,0,0,1-.04-.177,1.581,1.581,0,0,1,.126-.683A4.9,4.9,0,0,1,365.841,61.579Zm1.561,2.339a8.976,8.976,0,0,0-1.088,1.649c-.143.269-.307.527-.466.788-.016.026-.058.037-.088.055a.284.284,0,0,1-.047-.083,1.048,1.048,0,0,1,.136-.735,11.453,11.453,0,0,1,1.369-1.887,1.04,1.04,0,0,1,.241-.188c.034-.021.094,0,.162,0a.51.51,0,0,1-.031.157A2.314,2.314,0,0,1,367.4,63.918Zm2.554,4.064a2.782,2.782,0,0,1,.162,1.51.769.769,0,0,1-.039.191.119.119,0,0,1-.08.063c-.03,0-.064-.023-.1-.036a1.045,1.045,0,0,1-.019-.14q-.009-.727-.015-1.455a.818.818,0,0,1-.015-.1.359.359,0,0,1,.037-.091C369.912,67.942,369.945,67.957,369.956,67.982Zm-2.85-.638a1.658,1.658,0,0,1-.059.209c-.125.285-.26.566-.382.852-.063.146-.1.3-.161.448a.431.431,0,0,1-.08.135.109.109,0,0,1-.1.029.127.127,0,0,1-.053-.086.223.223,0,0,1,.014-.1,4.75,4.75,0,0,1,.552-1.272A.4.4,0,0,1,367.106,67.343Zm-5.286-7.521c.028,0,.063-.011.082,0a2.313,2.313,0,0,1,.834.874c.058.1.118.2.174.3a.111.111,0,0,1-.045.178c-.019.009-.066-.013-.083-.034a1.827,1.827,0,0,1-.139-.21,6.106,6.106,0,0,0-.8-1.036C361.824,59.878,361.826,59.847,361.82,59.823Zm-1.358,1.953a.992.992,0,0,1,.2.015,4.325,4.325,0,0,1,1.269.557q.5.339.991.7a.589.589,0,0,1,.216.43.115.115,0,0,1-.2.1c-.178-.129-.35-.267-.527-.4-.488-.366-.975-.733-1.468-1.092a2.4,2.4,0,0,0-.344-.162,1.611,1.611,0,0,1-.154-.1ZM361,64.939a3.073,3.073,0,0,1,.781.211,10.834,10.834,0,0,1,1.826,1.073,2.074,2.074,0,0,1,.213.2.985.985,0,0,1,.086.11l.016,0c.026.133.056.266.075.4.005.034-.024.1-.043.106a.225.225,0,0,1-.161-.028,11.289,11.289,0,0,0-2.094-1.573c-.2-.119-.412-.233-.619-.347-.035-.02-.08-.023-.112-.046a.412.412,0,0,1-.072-.086A.324.324,0,0,1,361,64.939Zm1.348,2.415a.112.112,0,0,1-.1.031c-.132-.085-.259-.18-.386-.271,0-.049-.014-.089,0-.11a.109.109,0,0,1,.088-.035.7.7,0,0,1,.412.268A.13.13,0,0,1,362.349,67.354Zm.722.534a1.593,1.593,0,0,1-.133-.129c-.016-.019-.015-.053-.021-.08.025-.006.056-.023.074-.015a1.719,1.719,0,0,1,.353.184,9.832,9.832,0,0,1,1.2,1.131c.039.044.072.094.108.14l-.006,0c.015.026.032.053.047.08.032.058.038.118-.023.157s-.108,0-.151-.049c-.137-.157-.268-.32-.418-.464C363.764,68.524,363.416,68.208,363.071,67.888Zm3.109,3.254c.167.521.3,1.053.452,1.581a.571.571,0,0,1,.03.184.182.182,0,0,1-.066.116c-.012.011-.065-.026-.1-.042a4.359,4.359,0,0,1-.422-1.038,14.753,14.753,0,0,1-.654-2.1c-.075-.344-.192-.679-.256-1.024-.05-.274-.137-.536-.2-.8-.1-.38-.162-.768-.258-1.148-.128-.508-.275-1.01-.408-1.516-.045-.171-.073-.347-.105-.521-.067-.355-.134-.71-.2-1.065-.289-1.664-.494-3.341-.687-5.019a3.608,3.608,0,0,1,.042-.79c0-.021.031-.039.052-.059l.009-.008h0l.015.014c.016.015.035.029.034.042a5.173,5.173,0,0,0,.154.946c.087.749.175,1.5.281,2.244.132.935.266,1.869.431,2.8.121.679.283,1.352.448,2.023.1.414.256.814.361,1.227.15.588.271,1.184.415,1.773C365.729,69.691,365.948,70.418,366.18,71.142Zm5.6,4.337a.269.269,0,0,1-.054-.026,6.124,6.124,0,0,0-1.122-.72c-.053-.029-.126-.046-.1-.132.02-.067.1-.092.182-.054a2.6,2.6,0,0,1,.72.445q.169.154.332.314A.126.126,0,0,1,371.783,75.479Zm4.108-1.32a6.383,6.383,0,0,1-.657.2,8.494,8.494,0,0,1-3.132.061c-.3-.054-.605-.072-.909-.11-.2-.024-.394-.056-.592-.081L368.9,74.01c-.118-.015-.237-.019-.352-.041a.182.182,0,0,1-.08-.059l-.026-.024h0c.011-.012.021-.026.031-.039a.187.187,0,0,1,.058-.055.233.233,0,0,1,.127-.016q1.031.11,2.062.225c.121.013.241.031.362.046.405.047.813.078,1.215.142a9.557,9.557,0,0,0,2.294.042c.4-.033.794-.069,1.192-.1.035,0,.07,0,.106,0Zm-2.842-3.6c-.177.034-.355.056-.532.091-.219.045-.436.1-.654.146l-.027.009a.1.1,0,0,1-.132-.051.09.09,0,0,1,.056-.129,3.14,3.14,0,0,1,.518-.146c.283-.038.57-.048.855-.062a1.6,1.6,0,0,1,.261.029v.028C373.279,70.5,373.165,70.534,373.049,70.557Zm1.772,2.438c0,.034.019.078,0,.1a1.508,1.508,0,0,1-.2.248,2.633,2.633,0,0,1-.278.194c-.069.034-.14.072-.215.1a.268.268,0,0,1-.135.026c-.04-.006-.074-.043-.11-.067.022-.034.037-.08.067-.1.254-.165.512-.327.77-.486A.268.268,0,0,1,374.821,72.995Zm-1.833-.427a3.064,3.064,0,0,1,.293-.151l.038.048a1.963,1.963,0,0,1-.184.236,5.065,5.065,0,0,1-1.256.8.314.314,0,0,1-.162.034.132.132,0,0,1-.1-.075.129.129,0,0,1,.053-.112A9.435,9.435,0,0,0,372.987,72.568Zm1.852-4.054c-.151.067-.311.113-.46.183q-.736.344-1.466.7c-.134.065-.256.154-.388.223a.409.409,0,0,1-.148.012c.009-.048,0-.116.032-.141.149-.13.307-.252.464-.373a1.156,1.156,0,0,1,.12-.072l-.011-.027c.331-.135.657-.282.993-.4.268-.1.548-.165.823-.241.032-.01.073.012.11.02C374.886,68.438,374.873,68.5,374.839,68.514Zm-.68-3.917a16.964,16.964,0,0,0-1.506,2.7c-.092.2-.151.422-.233.63-.123.309-.249.618-.382.924a9.653,9.653,0,0,1-.894,1.585,4.915,4.915,0,0,1-.89.989,9.09,9.09,0,0,1-1.174.88l-.9.45c-.057.029-.118.039-.158-.025s.006-.11.06-.143c.089-.052.176-.11.268-.153a4.828,4.828,0,0,0,1.254-.868,8.911,8.911,0,0,0,1.03-1.091,8.212,8.212,0,0,0,.981-1.52c.079-.17.15-.342.22-.516a15.842,15.842,0,0,1,1.556-3.082c.2-.3.442-.571.669-.852.019-.023.073-.019.111-.028C374.166,64.515,374.179,64.568,374.159,64.6Z" transform="translate(-16.33 0)" fill="#171716"/>
    <g id="Grupo_318" data-name="Grupo 318" transform="translate(291.648 79.105)">
      <g id="Grupo_316" data-name="Grupo 316" transform="translate(0.751 8.468)">
        <path id="Trazado_1039" data-name="Trazado 1039" d="M292.675,99.885H302.77c2.5,0,4.07.566,5.126,1.622A3.857,3.857,0,0,1,309,104.314v.051a4.213,4.213,0,0,1-3.22,4.121c2.318.67,3.812,1.906,3.812,4.378v.051c0,2.884-2.369,5-6.929,5h-9.991Zm8.5,7.082c1.287,0,1.9-.438,1.9-1.236v-.052c0-.8-.643-1.236-1.931-1.236h-2.6v2.524Zm.385,6.387c1.314,0,1.984-.541,1.984-1.313v-.052c0-.772-.644-1.313-1.957-1.313h-3.04v2.679Z" transform="translate(-292.675 -99.499)" fill="#e6553c"/>
        <path id="Trazado_1040" data-name="Trazado 1040" d="M317.043,108.808v-.052a9.545,9.545,0,0,1,9.864-9.4c5.564,0,9.812,4.12,9.812,9.348v.051a9.545,9.545,0,0,1-9.863,9.4C321.292,118.156,317.043,114.036,317.043,108.808Zm13.6,0v-.052a3.856,3.856,0,0,0-3.785-4.069,3.8,3.8,0,0,0-3.735,4.018v.051a3.858,3.858,0,0,0,3.787,4.07A3.8,3.8,0,0,0,330.641,108.808Z" transform="translate(-299.223 -99.357)" fill="#e6553c"/>
        <path id="Trazado_1041" data-name="Trazado 1041" d="M346.2,99.885h6.9c7.159,0,10.738,3.528,10.738,8.859v.051c0,5.331-3.656,9.117-10.945,9.117H346.2Zm7.031,12.773c2.755,0,4.532-1.133,4.532-3.734v-.052c0-2.6-1.777-3.734-4.532-3.734h-1v7.52Z" transform="translate(-307.058 -99.499)" fill="#e6553c"/>
        <path id="Trazado_1042" data-name="Trazado 1042" d="M372.577,99.885h15.375v4.944H378.5v1.829h8.807v4.352H378.5v1.958h9.581v4.944h-15.5Z" transform="translate(-314.146 -99.499)" fill="#e6553c"/>
        <path id="Trazado_1043" data-name="Trazado 1043" d="M395.081,108.808v-.052c0-5.382,4.25-9.4,9.94-9.4a11.17,11.17,0,0,1,7.546,2.729l-3.374,4.07a6.046,6.046,0,0,0-3.992-1.571,4.021,4.021,0,0,0-4.043,4.249v.052a4.109,4.109,0,0,0,4.3,4.3,3.986,3.986,0,0,0,2.06-.412v-1.8h-3.09v-3.863h8.729v8.344a12.483,12.483,0,0,1-7.958,2.7C399.588,118.156,395.081,114.4,395.081,108.808Z" transform="translate(-320.193 -99.357)" fill="#e6553c"/>
        <path id="Trazado_1044" data-name="Trazado 1044" d="M428,99.709h5.976l7.6,18.156h-6.541l-.953-2.421h-6.31l-.927,2.421H420.4Zm4.585,11.46-1.648-4.378-1.648,4.378Z" transform="translate(-326.996 -99.452)" fill="#e6553c"/>
      </g>
      <g id="Grupo_317" data-name="Grupo 317">
        <path id="Trazado_1045" data-name="Trazado 1045" d="M311.145,95.533c0,.13-.124.268-.153.343-.233.608-.448,1.226-.721,1.815-.293.63-.646,1.231-.967,1.849-.2.388-.393.784-.592,1.175-.674,1.322-1.346,2.646-2.026,3.965-.383.742-.788,1.473-1.173,2.214-.32.618-.619,1.248-.941,1.865-.128.245-.314.459-.442.7-.333.637-.646,1.285-.975,1.925-.127.247-.271.486-.41.728a2.233,2.233,0,0,0-.148.236,38.945,38.945,0,0,1-1.885,3.572,9.711,9.711,0,0,1-1.214,1.95.455.455,0,0,0-.109.173,9.821,9.821,0,0,1-.842,1.752c-.435.87-.861,1.743-1.291,2.615-.38.772-.762,1.544-1.139,2.317-.089.183-.23.352-.189.576.107.117.221.065.319.008.826-.481,1.754-.752,2.584-1.212a14.166,14.166,0,0,1,2.032-.9c.238-.087.453-.233.69-.323a5.087,5.087,0,0,1,1.6-.471.266.266,0,0,0,.135-.029c.556-.4,1.279-.41,1.851-.78a1.174,1.174,0,0,1,.325-.121c.579-.163,1.16-.321,1.74-.483.088-.025.172-.064.26-.087.4-.1.779-.259,1.2-.333a10.161,10.161,0,0,0,1.57-.554c.942-.335,1.882-.674,2.832-.989.682-.226,1.373-.434,2.068-.616a28.483,28.483,0,0,1,3.614-.735.667.667,0,0,1,.732.272.73.73,0,0,1-.048.85,2.589,2.589,0,0,1-1.074.957,17.011,17.011,0,0,1-2.741,1.028c-1.323.366-2.619.828-3.945,1.185-1.685.456-3.327,1.044-5,1.544-1.092.327-2.179.663-3.237,1.091-.343.138-.708.222-1.061.336a3.4,3.4,0,0,0-1.266.563.807.807,0,0,1-.313.147c-.442.118-.843.343-1.282.477a8.946,8.946,0,0,0-1.188.546c-.945.448-1.775,1.1-2.713,1.553-.649.316-1.293.635-1.916,1a2.044,2.044,0,0,1-1.52.1,3.78,3.78,0,0,0-.293-.545,1.155,1.155,0,0,1-.132-1.192c.221-.563.437-1.133.712-1.67.922-1.8,1.876-3.592,2.805-5.392.49-.951.952-1.916,1.432-2.872.3-.6.571-1.212.927-1.774.284-.45.558-.9.824-1.365a11.732,11.732,0,0,0,.679-1.508,4.117,4.117,0,0,1,.348-.743c.127-.192.212-.412.326-.613a5.44,5.44,0,0,1,.3-.464c.067-.094.18-.165.222-.267a6.467,6.467,0,0,1,.725-1.258,13.467,13.467,0,0,0,.765-1.245c.178-.324.285-.689.473-1.006.438-.739.91-1.458,1.362-2.19.387-.628.766-1.262,1.145-1.9q.251-.418.491-.844c.479-.852.948-1.709,1.434-2.557.451-.788.928-1.561,1.376-2.351.341-.6.684-1.2.982-1.831.347-.732.786-1.42,1.186-2.127.114-.2.225-.409.349-.6l0,0a.59.59,0,0,1,.738-.207C312.587,93.355,311.558,94.757,311.145,95.533Z" transform="translate(-291.648 -89.113)" fill="#171717"/>
        <path id="Trazado_1046" data-name="Trazado 1046" d="M340.423,134.4a2.787,2.787,0,0,0-.564.952,1.653,1.653,0,0,1-.29.469,7.186,7.186,0,0,0-.858,1.178,3.38,3.38,0,0,1-.489.578,4.445,4.445,0,0,0-.242.408c-.336.544-.84.963-1.144,1.532a1.752,1.752,0,0,0-.26.472.288.288,0,0,1-.253.267c-.059.018-.152.093-.146.127.061.366-.265.526-.415.767-.389.627-.823,1.227-1.248,1.833a6,6,0,0,1-1.321,1.338,2.366,2.366,0,0,1-2.129.359,1.361,1.361,0,0,1-1.008-1.285,5.951,5.951,0,0,1,.249-3.367c.339-1.21.747-2.4,1.134-3.6a33.529,33.529,0,0,1,1.488-3.915.888.888,0,0,0,.087-.494,1.713,1.713,0,0,0-.222.2q-1.423,1.815-2.837,3.635c-.369.478-.725.966-1.073,1.46a5.935,5.935,0,0,0-.38.663c-.129.245-.212.521-.494.652a.183.183,0,0,0-.1.1c-.151.619-.7,1.032-.859,1.646-.622,1.063-1.24,2.127-1.866,3.187-.366.62-.763,1.223-1.113,1.852-.176.317-.484.573-.487.978a.172.172,0,0,1-.064.121c-.576.393-.7,1.068-1.023,1.623-.15.262-.265.544-.4.815a.791.791,0,0,1-.177.3,2.091,2.091,0,0,0-.615.989,18.591,18.591,0,0,1-1.316,2.457,1.489,1.489,0,0,1-.962.836c-.064.011-.154.051-.19.023-.269-.2-.543,0-.829-.026-.15-.118-.342-.211-.386-.445a1.147,1.147,0,0,1,.055-.684c.224-.513.459-1.019.671-1.537a29.879,29.879,0,0,1,1.269-2.717c.864-1.623,1.723-3.25,2.63-4.849q1.031-1.818,2.185-3.566c.78-1.183,1.618-2.33,2.45-3.479.6-.827,1.234-1.629,1.842-2.448q.623-.838,1.218-1.7a35.87,35.87,0,0,1,2.565-3.128c.523-.595,1-1.223,1.569-1.781a3.956,3.956,0,0,1,2.173-1.148.576.576,0,0,1,.659.26c.245.436.107.62-.031,1.2a12.475,12.475,0,0,1-.487,1.6c-.159.411-.274.838-.41,1.258a3.383,3.383,0,0,1-.181.527c-.3.579-.475,1.217-.769,1.792-.371.729-.589,1.514-.932,2.247a12.937,12.937,0,0,0-.819,2.442,4.685,4.685,0,0,1-.369,1.047c-.135.264.018.438-.072.712-.142.031-.085.419-.192.442a2.791,2.791,0,0,0-.107,1.268c.369-.424.984-1.088,1.3-1.491.374-.472.571-1.151.98-1.6.438-.478.88-.951,1.321-1.427a.193.193,0,0,0,.037-.059,11.854,11.854,0,0,1,1.52-2.241c.52-.741,1.076-1.456,1.568-2.218a19.535,19.535,0,0,1,1.211-1.705,27.9,27.9,0,0,0,1.712-2.539,9.47,9.47,0,0,1,2.17-2.438c.516-.4,1-.838,1.506-1.248a2.147,2.147,0,0,1,1.063-.493.984.984,0,0,1,1.163.657,1.873,1.873,0,0,1,.089,1.1c-.108.473-.246.94-.355,1.413a9.5,9.5,0,0,1-.2,1.019c-.105.3-.366.55-.46.853a26.937,26.937,0,0,0-.916,2.7,3.638,3.638,0,0,1-.406.881c-.644,1.266-1.21,2.566-1.772,3.87-.505,1.175-1.069,2.326-1.622,3.48-.755,1.574-1.536,3.136-2.281,4.715-.357.755-.641,1.545-.985,2.308-.5,1.1-1.015,2.192-1.532,3.285a3.3,3.3,0,0,1-.284.421l-.539.076c-.09.158-.145.345-.367.367a.626.626,0,0,0-.411.213.407.407,0,0,1-.613-.077.981.981,0,0,1-.228-.713,4.059,4.059,0,0,1,.268-1.3c.362-.857.736-1.71,1.1-2.567.426-1.007.842-2.018,1.267-3.025.208-.493.412-.987.643-1.469.685-1.423,1.424-2.822,2.064-4.266.852-1.917,1.906-3.732,2.79-5.632.51-1.1,1.008-2.2,1.508-3.3a1.021,1.021,0,0,0,.03-.241c-.089.039-.159.048-.185.086-.358.516-.72,1.03-1.058,1.558-.186.292-.268.679-.51.9-.27.244-.3.565-.464.832a4.883,4.883,0,0,1-.429.629,7.553,7.553,0,0,1-1.362,1.65c-.018.012-.048.034-.046.044.075.341-.253.385-.407.556Zm-8.38,5.451-.008.049.045-.02Z" transform="translate(-298.622 -97.34)" fill="#171717"/>
        <path id="Trazado_1047" data-name="Trazado 1047" d="M408.9,126.329c-.473.158-.946,0-.946-.315a2.8,2.8,0,0,1,.39-2.534c.118-.622.261-1.24.423-1.851.115-.431.266-.852.409-1.275a1.654,1.654,0,0,1-.3-.056c-.335-.1-.158-.749-.473-.71s-2.148,2.76-3.055,3.509-5.561,5.473-6.448,6.163a6.577,6.577,0,0,1-3.075,1.3c-.086.019-.5-.1-.583-.077a.6.6,0,0,1-.461-.068c-.309-.056-.4-.195-.385-.356a1.257,1.257,0,0,1,.48-1.248c.368-.339.737-.675,1.113-1,.644-.565,1.18-1.234,1.782-1.84A4.7,4.7,0,0,0,399.3,122.5a1.237,1.237,0,0,1,.037-.324,2.035,2.035,0,0,0-.325-1.68,1.19,1.19,0,0,0-1.324-.406,6.932,6.932,0,0,0-3.183,2.663,10.8,10.8,0,0,0-1.507,3.444c-.1.464-.2.929-.309,1.392a3.533,3.533,0,0,1-.567,1.241,7.046,7.046,0,0,1-1.143,1.182c-.783.733-1.887.606-2.8,1.064a1.508,1.508,0,0,1-1.107-.144,2.809,2.809,0,0,1-.034-1.77c.069-.325.138-.652.186-.98.019-.129.369-1.6.454-1.99a4.464,4.464,0,0,1,.357-1.078,6.23,6.23,0,0,0,.5-1.328,8.887,8.887,0,0,1,.472-1.34c.679-1.651,1.382-3.292,2.09-4.93.2-.458.446-.893.667-1.34a.627.627,0,0,1,.434-.341c.322-.083.643-.174.965-.258,1.1-.29,2.169-.706,3.284-.954.363-.08.723-.178,1.082-.275.768-.207,1.538-.406,2.3-.617.641-.176,1.285-.349,1.918-.551a3.847,3.847,0,0,0,.764-.373.218.218,0,0,0-.01-.381,1.911,1.911,0,0,0-1.272-.2c-1.306.237-2.619.436-3.945.652l-.309-.3a1.434,1.434,0,0,1-.4.232,1.7,1.7,0,0,0-.747.206c-.064.043-.179.014-.271.015a2.455,2.455,0,0,0-.352,0c-.423.067-.842.152-1.266.217-.252.038-.509.051-.813.08a1.155,1.155,0,0,1,.007-.395c.16-.343.35-.671.522-1.008.194-.381.367-.772.573-1.147a12.641,12.641,0,0,1,.8-1.664c.144-.19.037-.353-.039-.529a1.284,1.284,0,0,0,.426-.562,15.228,15.228,0,0,1,.724-1.664.941.941,0,0,0-.218-1.185c-.753-.741-1.165-.633-1.629.258a9.984,9.984,0,0,0-.477,1.114c-.09.242-.1.516-.206.75-.3.674-.615,1.341-.951,2-.76,1.483-1.544,2.953-2.3,4.437a1.252,1.252,0,0,1-1.01.7c-.728.109-1.454.221-2.183.323-.376.053-.758.064-1.131.136a9.97,9.97,0,0,0-1.837.393,10.222,10.222,0,0,1-1.327.434c-.664.163-1.3.436-1.964.6a.976.976,0,0,0-.682.662,2.564,2.564,0,0,1,.265.428.555.555,0,0,0,.5.344,1.537,1.537,0,0,0,.284,0,25.959,25.959,0,0,0,4.111-.471c.984-.178,1.965-.37,2.948-.551.124-.023.655-.278.769-.078-1.071,2.888-6.761,11.591-7.592,12.576-.629.745-1.048,1.188-1.653,1.863-.416.464-1.724,1.823-2.21,1.286-.178-.229.069-.608.2-.88.272-.552,2.074-5.183.542-5.323-2.9-.29-3.931,3.414-6.159,5.24a.4.4,0,0,1-.619-.483,3,3,0,0,1,.57-.717l.156-.214a10.962,10.962,0,0,0,.685-1.5.152.152,0,0,1-.034-.161,1.3,1.3,0,0,1,.181-.333c.022-.09.042-.18.059-.272.012-.062.023-.127.032-.192-.055-.026-.312.1-.273-.031a1.236,1.236,0,0,0-.552-1.3c-1.143-.906-7.766,5.085-8.435,5.243-.32.075-.522-.619-.647-1.368-.148-.271-.29-.532-.445-.783a1.533,1.533,0,0,0-.919-.746,1.7,1.7,0,0,0-1.383.055,2.786,2.786,0,0,1-.88.281,2.334,2.334,0,0,0-1.016.5,7.131,7.131,0,0,0-1.506,1.689,18.762,18.762,0,0,0-.984,1.977,9.081,9.081,0,0,0-.786,3.023,2.838,2.838,0,0,0,1.129,2.7,1.452,1.452,0,0,0,.78.315,4.129,4.129,0,0,0,2.717-.677,7.776,7.776,0,0,0,1.855-1.952,13.753,13.753,0,0,0,1.462-2.813c.254-.14.232-.167.426-.287a6.9,6.9,0,0,1,.654-.431,9.812,9.812,0,0,0,1.487-.829c1.479-1.043,1.649-1.219,2.751-1.994.111-.078.217-.2.4-.168.286-.156.555-.3.728-.222.543.25-1.046,2.774-1.967,5.011-.6,1.468.4,2.393,1.385,1.855,1.529-.638,5.261-7.26,6.417-6.787.972.4-.722,3.256.1,4.582q.1.129.214.257a1.452,1.452,0,0,0,.559.306c2.9.365,7.358-5.7,8.008-6.615a.742.742,0,0,1,.462-.385c0,.16-.127,1.132-.14,1.261-.045.448-.11.9-.145,1.344a1.362,1.362,0,0,0,.251,1.21c.029.029.026.089.04.134.232.7.581,1.272,1.4,1.351a1.5,1.5,0,0,1,.3.075,1.678,1.678,0,0,0,1.448.012.785.785,0,0,1,.349-.067,3.222,3.222,0,0,0,1.291-.368,8.884,8.884,0,0,0,2.781-1.844,1.352,1.352,0,0,1,.295-.178c.236.325.461.6.646.9a1.026,1.026,0,0,0,.609.462,5.98,5.98,0,0,0,2.535.271,6.824,6.824,0,0,0,3.573-1.667,21.546,21.546,0,0,0,2.626-2.718c.974-1.2,2.151-2.208,3.089-3.466a1.3,1.3,0,0,1,.085.784,2.756,2.756,0,0,0-.079.565c.036.521.129,1.163-.325,1.389a5.234,5.234,0,0,0-1.893,1.3,4.667,4.667,0,0,0-.856,1.9,2.588,2.588,0,0,0,1.444,2.488,2.254,2.254,0,0,0,1.463.18,3.792,3.792,0,0,0,1.615-1.255,3.348,3.348,0,0,1-.114-.429c-.007-.046.072-.15.105-.148.306.021.083-.19.13-.279l.007.01c-.151-.251-.025-.429.118-.608.139.058.048-1.444.1-1.89.188-.1,1.193-.556,1.366-.63,1.16-.5,2.157-.964,3.311-1.472a16.562,16.562,0,0,0,2.05-.867,19.655,19.655,0,0,1,2.365-.973c.231-.1.109-.573.3-.774l-.078-.22C414.37,122.775,411.563,125.736,408.9,126.329Zm-48.419,4.136a.6.6,0,0,1,.064.037l-.1,0C360.455,130.487,360.472,130.463,360.476,130.465Zm1.062,3.992c-.357.45-.713.9-1.1,1.321-.32.342-.709.619-1.033.959a6.177,6.177,0,0,1-1.5.969,1.19,1.19,0,0,1-.294.1.358.358,0,0,1-.469-.373,6.094,6.094,0,0,1,.127-1.174c.2-.813.455-1.615.695-2.418a1.157,1.157,0,0,1,.165-.257.86.86,0,0,1,.239.081,3.424,3.424,0,0,0,2.758.453l.523-.076C361.6,134.234,361.6,134.374,361.538,134.457Zm.532-2.72a9.758,9.758,0,0,1-2.3.859l-.034.154.03-.156a.467.467,0,0,1-.449-.155c-.086-.106-.185-.2-.293-.317-.029-.268.407-.981.728-1.03.4-.061.584-.335.824-.569h0a6.911,6.911,0,0,0,.715-.3,1.994,1.994,0,0,1,.815-.205.452.452,0,0,1,.484.333A1.117,1.117,0,0,1,362.07,131.737Zm32.354-5.417a10.584,10.584,0,0,1,.964-2.586,5.755,5.755,0,0,1,1.817-1.819.907.907,0,0,1,.221-.071.336.336,0,0,1,.4.309,4.4,4.4,0,0,1-.68,2.206,10.279,10.279,0,0,1-2.97,3.164A7.933,7.933,0,0,1,394.424,126.319Zm10.732,5.686c-.447.237-1.125-.236-.908-1,.276-1.025,1.487-1.444,1.879-1.675C406.163,130.194,405.881,131.582,405.156,132.005Z" transform="translate(-308.781 -92.32)" fill="#171717"/>
        <path id="Trazado_1048" data-name="Trazado 1048" d="M353.654,102.773c-3.1,3.307-5.566,5.659-6.893,5.31-.426-.112-.473-.8-.284-1.385a9.731,9.731,0,0,1,.675-2.1c.229-.485.434-.981.66-1.468.335-.719.5-1.5.853-2.217a3.013,3.013,0,0,0,.213-.57.086.086,0,0,1-.034-.075c.026-.364-.7-1.431-3.408-.962s-6.852,4.878-7.05,5.1c-2.624,2.908-6.478,5.671-7.493,5.489-.434-.078-.448-.689-.323-1.362a7.939,7.939,0,0,1,2.277-4.929,23.006,23.006,0,0,0,2.619-3.881c.853-1.555,1.691-3.118,2.5-4.7a5.954,5.954,0,0,0,.635-1.678,6.015,6.015,0,0,1,.295-1.069c.168-.46.326-.924.487-1.387a5.2,5.2,0,0,0,.265-1.723,1.348,1.348,0,0,0-1.485-1.387,2.6,2.6,0,0,0-1.925.85,10.613,10.613,0,0,0-1.877,2.518c-.276.537-.618,1.041-.916,1.568-.356.629-.745,1.245-1.037,1.9-.584,1.321-1.127,2.662-1.659,4.005a33.563,33.563,0,0,0-1.412,4.979c-.077.34-.2.669-.287,1.006a5.506,5.506,0,0,1-2.35,2.869c-.478.464-.738.372-.928-.241-.007-.022-.023-.041-.031-.062a2.6,2.6,0,0,0-2.258-1.814,2.127,2.127,0,0,0-1.631.428,7.616,7.616,0,0,0-1.84,1.892,2.215,2.215,0,0,1-.816.783.665.665,0,0,0-.328.714.863.863,0,0,1-.114.573,6.882,6.882,0,0,0-.673,4.148,2,2,0,0,0,1.173,1.544,4.562,4.562,0,0,0,1,.327,1.061,1.061,0,0,0,.918-.211,3.954,3.954,0,0,1,.894-.536,4.174,4.174,0,0,0,1.5-1.115,9.875,9.875,0,0,0,1.452-2.132,6.129,6.129,0,0,0,.5-1,1.458,1.458,0,0,1,.7-.824c.494-.309.978-.633,1.46-.958.232-.156.45-.333.678-.5.09-.066.178-.162.35-.032,0,.2-.009.427,0,.657.029.583.08,1.166.1,1.749a1.554,1.554,0,0,0,2.094,1.285,2.936,2.936,0,0,1,.833-.276,8.155,8.155,0,0,0,1.258-.418,9.581,9.581,0,0,0,2.739-1.923c.634-.618,1.232-1.274,1.848-1.909a.658.658,0,0,1,.554-.294c.02.107.045.217.061.328.072.484.137.97.213,1.453a.769.769,0,0,0,.276.467c1.333,1.165,4.419-.565,5.063-1.569.1-.154.3-.2.48-.32.212.4.388.782.6,1.139a1.229,1.229,0,0,0,1.025.739,2.988,2.988,0,0,1,.4.118,2.992,2.992,0,0,0,.691.091,5.378,5.378,0,0,0,3-1.04c.653-.49,1.317-.972,1.927-1.513.664-.589,1.278-1.236,1.907-1.863.306-.3.8-.81,1.1-1.121a1.289,1.289,0,0,0,.23-.3q.205-.416.4-.836a1.719,1.719,0,0,0,.157-.967C355.564,101.463,355.088,101.242,353.654,102.773ZM337.643,89.806c2.383.2-6.352,13.429-6.352,13.429S335.166,89.6,337.643,89.806Zm-14.677,21.4a6.558,6.558,0,0,1-2.257,2.57,2.4,2.4,0,0,1-.586.235c-.336.107-.566-.056-.531-.418a5.943,5.943,0,0,1,.234-1.243c.157-.489.392-.954.6-1.448a13.008,13.008,0,0,1,2.578.043A.894.894,0,0,1,322.966,111.21Zm1.195-2.965a.871.871,0,0,1-.806.9c-.346.057-.682.172-1.028.226-.584.091-.64.06-1.192-.452a1.24,1.24,0,0,0,.355-.184,2.778,2.778,0,0,0,.2-.371,4.712,4.712,0,0,1,1.917-1.613.376.376,0,0,1,.557.251,1.626,1.626,0,0,1,.1.548C324.252,107.782,324.176,108.012,324.161,108.245Zm18.817-1.82a18.338,18.338,0,0,1-1.908,1.358.407.407,0,0,1-.559.008,4.3,4.3,0,0,1,.129-.467,19.875,19.875,0,0,1,1.75-3.494,4.633,4.633,0,0,1,1.31-1.357c.652-.434,1.29-.889,1.938-1.329a3.774,3.774,0,0,1,.507-.3.338.338,0,0,1,.51.317,2.195,2.195,0,0,1-.162.7A11.609,11.609,0,0,1,342.979,106.425Z" transform="translate(-298.728 -87.777)" fill="#171717"/>
      </g>
    </g>
  </g>
</svg>
