<svg xmlns="http://www.w3.org/2000/svg" width="137.965" height="71.264" viewBox="0 0 137.965 71.264">
  <g id="LOGO_FOOTER_2" transform="translate(-46.956 -294.059)">
    <path id="Trazado_1049" data-name="Trazado 1049" d="M161.937,342.835a21.826,21.826,0,0,1-6.633,15.814c-4.1,4.108-9.788,6.674-19.157,6.674H97.205V294.162l33.154-.1c9.684,0,14.105,2.259,18.421,6.47,4.209,4.209,5.473,9.242,5.473,15.094,0,4.929-1.581,8.214-3.263,9.652a7.368,7.368,0,0,1,4.314,2.157,20.463,20.463,0,0,1,6.633,15.4M119.2,310.489V320.86h10.314a6.32,6.32,0,0,0,4.525-1.54,5.213,5.213,0,0,0,1.58-3.7,5.15,5.15,0,0,0-5.263-5.135Zm22.418,32.346a5.438,5.438,0,0,0-5.474-5.339H119.2V348.38H134.78c2.631,0,4.21-.718,5.156-1.643a5.363,5.363,0,0,0,1.685-3.9" transform="translate(-13.631 0)" fill="#454545"/>
    <path id="Trazado_1050" data-name="Trazado 1050" d="M143.729,331.523a2.527,2.527,0,0,0-.523.863,1.473,1.473,0,0,1-.269.424,6.645,6.645,0,0,0-.794,1.065,3.107,3.107,0,0,1-.453.522,4.313,4.313,0,0,0-.224.369c-.313.493-.778.872-1.06,1.385a1.579,1.579,0,0,0-.24.426c-.026.164-.1.2-.235.242-.055.016-.141.084-.134.115.057.33-.248.477-.387.7-.361.567-.763,1.108-1.156,1.658a5.4,5.4,0,0,1-1.225,1.209,2.241,2.241,0,0,1-1.973.326,1.236,1.236,0,0,1-.934-1.164,5.254,5.254,0,0,1,.229-3.045c.316-1.094.693-2.17,1.054-3.251a29.622,29.622,0,0,1,1.379-3.542.794.794,0,0,0,.082-.446,1.5,1.5,0,0,0-.206.181c-.879,1.095-1.759,2.188-2.63,3.289-.342.431-.673.874-.995,1.32a5.614,5.614,0,0,0-.353.6c-.12.222-.2.473-.457.592a.174.174,0,0,0-.091.085c-.139.561-.646.934-.8,1.49-.576.961-1.15,1.924-1.729,2.884-.341.561-.708,1.105-1.032,1.674-.165.287-.45.519-.453.885a.148.148,0,0,1-.058.109c-.533.356-.655.968-.949,1.468-.139.237-.248.493-.372.737a.722.722,0,0,1-.162.269,1.864,1.864,0,0,0-.57.893,16.631,16.631,0,0,1-1.221,2.223,1.366,1.366,0,0,1-.892.756c-.06.009-.141.047-.175.021-.251-.182-.5,0-.769-.023-.139-.107-.318-.192-.357-.4a1.012,1.012,0,0,1,.05-.619c.208-.463.426-.922.622-1.39q.528-1.257,1.176-2.459c.8-1.468,1.6-2.94,2.439-4.386q.958-1.643,2.027-3.225c.723-1.071,1.5-2.107,2.271-3.146.555-.748,1.145-1.473,1.707-2.215q.578-.759,1.13-1.533a32.477,32.477,0,0,1,2.379-2.832c.484-.536.931-1.105,1.455-1.611a3.686,3.686,0,0,1,2.013-1.037.54.54,0,0,1,.611.235c.227.394.1.561-.029,1.081a11.228,11.228,0,0,1-.45,1.444c-.148.372-.256.757-.383,1.138a3.055,3.055,0,0,1-.166.475c-.281.525-.442,1.1-.713,1.621-.345.659-.547,1.369-.867,2.034a11.465,11.465,0,0,0-.757,2.209,4.237,4.237,0,0,1-.343.947c-.125.238.017.395-.068.643-.132.029-.08.38-.178.4a2.463,2.463,0,0,0-.1,1.148c.342-.384.912-.984,1.209-1.349.348-.428.528-1.042.909-1.444.405-.433.815-.861,1.224-1.291a.181.181,0,0,0,.035-.054,10.645,10.645,0,0,1,1.407-2.027c.483-.67,1-1.316,1.454-2.007a18.1,18.1,0,0,1,1.123-1.541,25.4,25.4,0,0,0,1.588-2.3,8.649,8.649,0,0,1,2.011-2.2c.48-.36.927-.759,1.4-1.13a2.02,2.02,0,0,1,.987-.445.915.915,0,0,1,1.077.595,1.657,1.657,0,0,1,.083.993c-.1.428-.23.85-.328,1.278a8.267,8.267,0,0,1-.184.923c-.1.272-.34.5-.428.771a23.868,23.868,0,0,0-.847,2.443,3.3,3.3,0,0,1-.377.8c-.6,1.146-1.123,2.321-1.643,3.5-.469,1.063-.992,2.1-1.506,3.148-.7,1.425-1.424,2.836-2.113,4.264-.331.684-.595,1.4-.914,2.088-.46,1-.94,1.984-1.42,2.971a3.243,3.243,0,0,1-.262.383l-.5.069c-.085.142-.134.313-.34.332a.589.589,0,0,0-.382.193.383.383,0,0,1-.568-.07.893.893,0,0,1-.213-.645,3.656,3.656,0,0,1,.249-1.172c.336-.775.683-1.546,1.019-2.321.394-.911.78-1.825,1.175-2.736.192-.445.383-.893.6-1.328.633-1.289,1.321-2.553,1.914-3.858.791-1.736,1.766-3.378,2.586-5.1.474-.992.934-1.991,1.4-2.988a.924.924,0,0,0,.028-.219c-.081.036-.147.044-.173.078-.331.467-.666.932-.978,1.41-.175.264-.251.613-.475.812-.249.221-.278.511-.429.753a4.649,4.649,0,0,1-.4.568,6.852,6.852,0,0,1-1.263,1.493c-.016.011-.044.031-.043.04.07.308-.234.348-.377.5Zm-7.77,4.931-.007.044.041-.018Z" transform="translate(-20.512 -7.455)" fill="#f4eee2"/>
    <path id="Trazado_1051" data-name="Trazado 1051" d="M65.034,338.321c0,.118-.114.243-.141.309-.216.552-.415,1.109-.668,1.644-.273.569-.6,1.113-.9,1.671-.189.352-.365.71-.548,1.063-.627,1.2-1.248,2.394-1.879,3.587-.356.671-.732,1.332-1.088,2-.3.559-.574,1.128-.872,1.686-.118.222-.292.417-.41.637-.311.577-.6,1.162-.9,1.741-.118.225-.251.441-.379.66a1.737,1.737,0,0,0-.14.214,34.708,34.708,0,0,1-1.746,3.232,8.794,8.794,0,0,1-1.127,1.763.458.458,0,0,0-.1.155,8.692,8.692,0,0,1-.779,1.585c-.4.786-.8,1.577-1.2,2.365q-.531,1.048-1.058,2.1c-.083.165-.213.32-.175.522.1.106.206.059.3.008.764-.436,1.625-.681,2.4-1.1a13.191,13.191,0,0,1,1.883-.817c.221-.079.422-.211.64-.294a4.792,4.792,0,0,1,1.481-.425.244.244,0,0,0,.126-.027c.517-.365,1.186-.372,1.716-.705a1.118,1.118,0,0,1,.3-.109c.537-.147,1.075-.29,1.613-.437.082-.021.158-.057.241-.078.37-.093.722-.235,1.108-.3a9.674,9.674,0,0,0,1.457-.5c.874-.3,1.744-.611,2.625-.9.633-.2,1.272-.392,1.917-.557a27.1,27.1,0,0,1,3.351-.665.625.625,0,0,1,.678.246.643.643,0,0,1-.043.769,2.369,2.369,0,0,1-1,.865,16.076,16.076,0,0,1-2.54.931c-1.226.332-2.429.748-3.657,1.073-1.562.412-3.083.944-4.633,1.4-1.011.3-2.021.6-3,.987-.317.125-.654.2-.983.3a3.2,3.2,0,0,0-1.175.509.717.717,0,0,1-.287.133c-.411.107-.783.31-1.19.431a8.34,8.34,0,0,0-1.1.495c-.876.405-1.647.99-2.516,1.4-.6.286-1.2.576-1.776.909a1.944,1.944,0,0,1-1.409.088,3.366,3.366,0,0,0-.272-.493,1.022,1.022,0,0,1-.122-1.077,16.5,16.5,0,0,1,.658-1.513c.856-1.63,1.739-3.248,2.6-4.877.455-.861.882-1.734,1.327-2.6.278-.539.531-1.1.859-1.6.265-.408.519-.818.764-1.236a10.417,10.417,0,0,0,.63-1.363,3.786,3.786,0,0,1,.322-.671c.118-.175.2-.372.3-.554a4.457,4.457,0,0,1,.28-.42c.061-.086.164-.149.2-.242a5.8,5.8,0,0,1,.673-1.138,11.981,11.981,0,0,0,.709-1.127c.167-.294.265-.624.439-.911.407-.668.845-1.319,1.263-1.981.359-.569.71-1.141,1.062-1.715.156-.253.309-.507.455-.764.445-.77.88-1.546,1.328-2.312.419-.713.863-1.412,1.276-2.127.316-.544.635-1.087.912-1.656.321-.663.727-1.285,1.1-1.924.1-.183.208-.369.322-.548l0,0a.556.556,0,0,1,.684-.187c1.143.5.186,1.766-.195,2.469" transform="translate(0 -11.324)" fill="#f4eee2"/>
    <path id="Trazado_1052" data-name="Trazado 1052" d="M207.337,324.161c-.439.143-.875,0-.875-.285a2.477,2.477,0,0,1,.359-2.292c.112-.563.244-1.12.393-1.675.106-.389.248-.77.379-1.152a1.752,1.752,0,0,1-.274-.052c-.309-.09-.146-.678-.439-.641s-1.992,2.494-2.833,3.172-5.156,4.951-5.979,5.575a6.184,6.184,0,0,1-2.851,1.177c-.08.016-.461-.09-.54-.07a.574.574,0,0,1-.429-.061c-.286-.052-.372-.177-.357-.323a1.12,1.12,0,0,1,.447-1.128c.34-.307.682-.611,1.031-.909.6-.511,1.093-1.116,1.651-1.664a4.2,4.2,0,0,0,1.414-3.139,1.085,1.085,0,0,1,.036-.294,1.814,1.814,0,0,0-.3-1.52,1.118,1.118,0,0,0-1.228-.367,6.4,6.4,0,0,0-2.951,2.408,9.7,9.7,0,0,0-1.4,3.115c-.1.42-.188.84-.286,1.259a3.159,3.159,0,0,1-.525,1.123,6.607,6.607,0,0,1-1.06,1.07c-.727.662-1.751.547-2.6.962a1.429,1.429,0,0,1-1.026-.13,2.5,2.5,0,0,1-.031-1.6c.063-.3.128-.588.171-.887.018-.117.343-1.442.421-1.8a4.064,4.064,0,0,1,.331-.975,5.458,5.458,0,0,0,.467-1.2,7.817,7.817,0,0,1,.436-1.213c.63-1.493,1.283-2.975,1.937-4.459.184-.413.414-.807.619-1.212a.576.576,0,0,1,.4-.308c.3-.077.6-.157.9-.233,1.022-.261,2.011-.639,3.044-.863.337-.072.669-.162,1-.249.713-.187,1.427-.367,2.137-.558.595-.159,1.191-.316,1.78-.5a3.512,3.512,0,0,0,.707-.337.2.2,0,0,0-.008-.343,1.8,1.8,0,0,0-1.179-.182c-1.211.214-2.427.394-3.659.59-.086-.082-.192-.181-.286-.272a1.444,1.444,0,0,1-.375.211,1.624,1.624,0,0,0-.693.186c-.06.039-.166.013-.251.013a2.448,2.448,0,0,0-.327,0c-.391.06-.779.138-1.173.2-.232.034-.471.047-.754.073a1.033,1.033,0,0,1,.007-.357c.148-.311.324-.608.484-.912.179-.345.34-.7.532-1.037a11.222,11.222,0,0,1,.739-1.506c.133-.171.033-.319-.038-.478a1.154,1.154,0,0,0,.4-.509,13.367,13.367,0,0,1,.67-1.5.836.836,0,0,0-.2-1.071c-.7-.671-1.08-.573-1.508.233a8.568,8.568,0,0,0-.444,1.009c-.083.219-.094.466-.189.677-.28.609-.571,1.213-.884,1.806-.7,1.342-1.432,2.671-2.134,4.015a1.158,1.158,0,0,1-.935.629c-.675.1-1.349.2-2.024.291-.349.049-.7.058-1.049.123a9.5,9.5,0,0,0-1.7.355,9.7,9.7,0,0,1-1.23.394c-.617.147-1.208.394-1.822.541a.9.9,0,0,0-.633.6,2.231,2.231,0,0,1,.246.387.51.51,0,0,0,.463.31,1.433,1.433,0,0,0,.262,0,24.691,24.691,0,0,0,3.811-.426c.912-.163,1.823-.335,2.733-.5.117-.021.608-.251.713-.071-.993,2.612-6.268,10.485-7.037,11.376-.585.674-.972,1.075-1.534,1.686-.385.42-1.6,1.648-2.048,1.163-.166-.208.063-.551.187-.8.251-.5,1.922-4.689.5-4.816-2.687-.261-3.645,3.088-5.71,4.741a.37.37,0,0,1-.575-.437,2.741,2.741,0,0,1,.531-.649c.039-.054.1-.139.144-.193a9.808,9.808,0,0,0,.633-1.355.138.138,0,0,1-.03-.146,1.2,1.2,0,0,1,.168-.3c.021-.081.039-.164.056-.246.01-.055.02-.115.028-.173-.05-.023-.289.087-.253-.028a1.108,1.108,0,0,0-.512-1.177c-1.058-.82-7.2,4.6-7.821,4.743-.294.069-.484-.561-.6-1.237-.136-.246-.267-.481-.412-.708a1.413,1.413,0,0,0-.852-.676,1.613,1.613,0,0,0-1.281.05,2.618,2.618,0,0,1-.815.255,2.175,2.175,0,0,0-.944.449,6.564,6.564,0,0,0-1.4,1.528,17.19,17.19,0,0,0-.912,1.788,8.056,8.056,0,0,0-.728,2.735,2.539,2.539,0,0,0,1.046,2.441,1.375,1.375,0,0,0,.723.286,3.9,3.9,0,0,0,2.518-.613,7.159,7.159,0,0,0,1.72-1.765,12.3,12.3,0,0,0,1.355-2.546c.236-.127.216-.151.4-.258a6.068,6.068,0,0,1,.6-.391,9.155,9.155,0,0,0,1.379-.748c1.371-.944,1.529-1.1,2.551-1.8.1-.071.2-.179.37-.152.264-.141.517-.273.675-.2.5.227-.969,2.51-1.823,4.533-.562,1.328.37,2.166,1.282,1.678,1.419-.577,4.88-6.567,5.951-6.139.9.36-.67,2.945.091,4.146.065.077.13.155.2.232a1.35,1.35,0,0,0,.517.277c2.693.331,6.823-5.157,7.424-5.984a.7.7,0,0,1,.429-.348c0,.144-.117,1.025-.13,1.141-.04.405-.1.809-.135,1.216a1.211,1.211,0,0,0,.232,1.094c.027.026.023.081.038.122.215.632.537,1.149,1.3,1.222a1.356,1.356,0,0,1,.281.066,1.6,1.6,0,0,0,1.343.012.742.742,0,0,1,.322-.062,3.073,3.073,0,0,0,1.2-.332,8.277,8.277,0,0,0,2.578-1.668,1.269,1.269,0,0,1,.273-.163c.218.3.425.544.6.817a.953.953,0,0,0,.565.418,5.67,5.67,0,0,0,2.349.245,6.4,6.4,0,0,0,3.312-1.509,19.641,19.641,0,0,0,2.436-2.457c.9-1.084,1.994-2,2.862-3.136a1.138,1.138,0,0,1,.079.71,2.578,2.578,0,0,0-.073.511c.033.471.121,1.052-.3,1.256a4.842,4.842,0,0,0-1.756,1.177,4.171,4.171,0,0,0-.792,1.723,2.334,2.334,0,0,0,1.337,2.252,2.142,2.142,0,0,0,1.358.162,3.513,3.513,0,0,0,1.5-1.135,2.71,2.71,0,0,1-.1-.387c-.007-.042.066-.136.1-.135.284.02.077-.172.12-.253l.009.009c-.141-.227-.021-.387.109-.549.128.052.044-1.308.088-1.711.176-.09,1.106-.5,1.268-.569,1.076-.451,2-.871,3.072-1.332a15.524,15.524,0,0,0,1.9-.785,18.3,18.3,0,0,1,2.195-.878c.214-.091.1-.519.279-.7-.027-.071-.05-.136-.072-.2-2.49-.865-5.093,1.812-7.567,2.349M162.444,327.9a.487.487,0,0,1,.061.032c-.031,0-.061,0-.09,0,.01-.01.025-.033.028-.029m.985,3.611c-.331.407-.662.815-1.024,1.193-.3.311-.657.561-.957.869a5.749,5.749,0,0,1-1.394.877,1.169,1.169,0,0,1-.273.094.329.329,0,0,1-.433-.34,5.362,5.362,0,0,1,.116-1.061c.189-.736.422-1.46.645-2.187a1.053,1.053,0,0,1,.153-.233.823.823,0,0,1,.222.073,3.242,3.242,0,0,0,2.557.41l.483-.068c-.042.17-.036.3-.1.372m.493-2.462a9.2,9.2,0,0,1-2.132.778c-.012.046-.022.091-.032.138.009-.047.018-.094.029-.141a.444.444,0,0,1-.418-.139c-.079-.1-.173-.182-.271-.287-.028-.243.376-.887.673-.932a1.371,1.371,0,0,0,.764-.514h0a6.778,6.778,0,0,0,.662-.273,1.923,1.923,0,0,1,.756-.187.421.421,0,0,1,.448.3,1,1,0,0,1-.483,1.253m30-4.9a9.393,9.393,0,0,1,.893-2.339,5.29,5.29,0,0,1,1.684-1.646,1,1,0,0,1,.206-.063.307.307,0,0,1,.367.281,3.891,3.891,0,0,1-.63,2,9.389,9.389,0,0,1-2.753,2.86,6.893,6.893,0,0,1,.232-1.087m9.949,5.143c-.413.214-1.042-.214-.841-.909.254-.927,1.379-1.3,1.743-1.515a2.934,2.934,0,0,1-.9,2.424" transform="translate(-30.055 -2.855)" fill="#f4eee2"/>
    <path id="Trazado_1053" data-name="Trazado 1053" d="M104.534,344.853c-2.873,2.992-5.16,5.119-6.393,4.8-.394-.1-.437-.727-.262-1.253a8.477,8.477,0,0,1,.626-1.9c.211-.439.4-.888.611-1.329.311-.65.466-1.355.791-2a2.683,2.683,0,0,0,.2-.516.075.075,0,0,1-.034-.068c.026-.329-.649-1.295-3.16-.871s-6.352,4.414-6.536,4.613c-2.432,2.629-6.008,5.13-6.948,4.965-.4-.07-.415-.622-.3-1.232A7.123,7.123,0,0,1,85.24,345.6a20.775,20.775,0,0,0,2.427-3.51c.791-1.406,1.568-2.82,2.316-4.248a5.257,5.257,0,0,0,.59-1.519,5.15,5.15,0,0,1,.274-.966c.154-.417.3-.837.45-1.255a4.634,4.634,0,0,0,.247-1.559,1.238,1.238,0,0,0-1.377-1.255,2.432,2.432,0,0,0-1.786.77,9.528,9.528,0,0,0-1.741,2.277c-.257.486-.572.942-.85,1.419-.331.568-.691,1.126-.962,1.721-.541,1.2-1.045,2.408-1.538,3.625a29.793,29.793,0,0,0-1.31,4.5c-.071.306-.186.6-.265.909a5.025,5.025,0,0,1-2.18,2.595c-.442.42-.685.337-.859-.219-.007-.02-.022-.037-.03-.057a2.4,2.4,0,0,0-2.1-1.64,2.022,2.022,0,0,0-1.512.388,6.989,6.989,0,0,0-1.7,1.711,2.051,2.051,0,0,1-.756.709.6.6,0,0,0-.306.645.764.764,0,0,1-.1.519,6.089,6.089,0,0,0-.623,3.751,1.815,1.815,0,0,0,1.087,1.4,4.309,4.309,0,0,0,.922.3,1,1,0,0,0,.851-.191,3.737,3.737,0,0,1,.829-.485,3.851,3.851,0,0,0,1.394-1.009,8.977,8.977,0,0,0,1.347-1.927,5.706,5.706,0,0,0,.465-.9,1.32,1.32,0,0,1,.653-.744c.457-.281.906-.572,1.353-.867.216-.143.419-.3.63-.449.083-.06.163-.148.324-.029,0,.178-.009.385,0,.595.028.527.075,1.054.093,1.582a1.214,1.214,0,0,0,.871,1.143,1.26,1.26,0,0,0,1.071.02,2.7,2.7,0,0,1,.773-.25,7.835,7.835,0,0,0,1.166-.378,8.9,8.9,0,0,0,2.539-1.739c.59-.559,1.143-1.152,1.712-1.728a.615.615,0,0,1,.515-.265c.018.1.04.2.056.3.067.437.126.877.2,1.314a.693.693,0,0,0,.256.422c1.236,1.053,4.1-.511,4.694-1.42.09-.138.283-.183.446-.289.2.367.36.708.556,1.031A1.141,1.141,0,0,0,97.3,351a3,3,0,0,1,.369.107,2.765,2.765,0,0,0,.641.081,5.065,5.065,0,0,0,2.782-.94c.6-.442,1.22-.878,1.786-1.368.616-.533,1.185-1.119,1.768-1.686.283-.275.741-.732,1.017-1.014a1.177,1.177,0,0,0,.214-.271c.126-.249.249-.5.371-.755a1.52,1.52,0,0,0,.144-.874c-.09-.614-.53-.814-1.859.571M89.687,333.125c2.212.181-5.887,12.146-5.887,12.146s3.592-12.337,5.887-12.146m-13.608,19.36a5.957,5.957,0,0,1-2.091,2.325,2.289,2.289,0,0,1-.543.214c-.313.1-.525-.05-.492-.378a5.316,5.316,0,0,1,.216-1.124c.146-.443.364-.863.558-1.31a12.4,12.4,0,0,1,2.391.039.78.78,0,0,1-.039.235m1.108-2.682a.8.8,0,0,1-.748.814c-.321.052-.631.156-.952.2-.542.083-.595.054-1.1-.408a1.154,1.154,0,0,0,.327-.167c.086-.087.11-.23.183-.336a4.339,4.339,0,0,1,1.777-1.459.35.35,0,0,1,.515.227,1.452,1.452,0,0,1,.091.5c-.005.211-.075.418-.09.628m17.448-1.646a17.084,17.084,0,0,1-1.768,1.229.387.387,0,0,1-.52.006,4,4,0,0,1,.12-.423,17.583,17.583,0,0,1,1.623-3.159,4.256,4.256,0,0,1,1.214-1.229c.6-.392,1.2-.8,1.8-1.2a3.571,3.571,0,0,1,.471-.267.313.313,0,0,1,.472.287,1.91,1.91,0,0,1-.149.63,10.532,10.532,0,0,1-3.26,4.128" transform="translate(-6.651 -10.1)" fill="#f4eee2"/>
    <path id="Trazado_1054" data-name="Trazado 1054" d="M196.284,364.786q.635-.709,1.276-1.411a.424.424,0,0,0-.123-.714,6.147,6.147,0,0,0-3.385-.625,1.648,1.648,0,0,0-.682.184c-.7.4-1.4.8-2.1,1.185a.819.819,0,0,1-.335.1.626.626,0,0,1-.642-.5.639.639,0,0,1,.389-.732q.836-.357,1.672-.714a.434.434,0,0,0,.263-.305c.05-.187.1-.372.154-.558q.277-.99.552-1.981a.5.5,0,0,0,.023-.184.4.4,0,0,0-.454-.379c-.172.009-.343.03-.515.044l-.353.025a6.444,6.444,0,0,0-.246-2.518.415.415,0,0,0-.461-.324c-.074,0-.149.009-.223.013l-.657.028c-.019-.154-.031-.3-.057-.442a4.492,4.492,0,0,0-.429-1.215c-.211-.423-.434-.84-.642-1.264a1.113,1.113,0,0,1-.149-.692.388.388,0,0,0-.325-.418.407.407,0,0,0-.472.246.589.589,0,0,1-.222.294c-.287.2-.575.393-.871.575a5.289,5.289,0,0,0-1.833,1.526l-.106-.069c-.215-.145-.429-.291-.644-.434a.414.414,0,0,0-.541.038,6.461,6.461,0,0,0-1.426,1.838c-.031.063-.061.127-.095.2-.031-.021-.056-.036-.079-.053l-.578-.42a.428.428,0,0,0-.721.251q-.345,1.259-.7,2.516a.439.439,0,0,0,.068.4l.4.55.662.92a.618.618,0,0,1,.083.641.609.609,0,0,1-.553.389.619.619,0,0,1-.6-.341q-.6-1.056-1.19-2.113a1.145,1.145,0,0,0-.284-.351c-.1-.083-.206-.171-.314-.249a5.9,5.9,0,0,0-2.223-1,7.6,7.6,0,0,0-.942-.141.412.412,0,0,0-.428.517c.133.682.273,1.363.385,2.05a.872.872,0,0,1-.6,1.025.419.419,0,0,0-.232.678c.147.206.3.41.444.616l.52.722c-.048-.012-.074-.017-.1-.024-.16-.044-.319-.093-.481-.133a.418.418,0,0,0-.525.456c.023.222.041.444.071.665.09.66.179,1.32.28,1.979a5.952,5.952,0,0,0,.283,1.149.907.907,0,0,0,.437.529c.321.168.638.345.953.525a.539.539,0,0,1,.167.165.16.16,0,0,1-.091.256,2.753,2.753,0,0,1-.39.09.629.629,0,0,0-.5.291,3.624,3.624,0,0,0-.211.4.219.219,0,0,1-.183.147q-.379.048-.76.09a.183.183,0,0,0-.179.184.649.649,0,0,0,.245.479c.264.257.547.495.828.735a.3.3,0,0,1,.109.173.75.75,0,0,0,.537.617,7.4,7.4,0,0,0,1.479.355c.189.017.375.061.563.092a.2.2,0,0,1,.152.119,2.212,2.212,0,0,0,.183.306.4.4,0,0,0,.439.171,3.392,3.392,0,0,0,.857-.27c.195-.1.393-.2.587-.3.291-.156.592-.3.866-.478.422-.278.822-.588,1.238-.875.16-.111.339-.2.509-.292a.08.08,0,0,1,.132.063.469.469,0,0,1-.01.191q-.292,1.061-.589,2.121c-.115.412-.208.832-.354,1.233-.188.52-.416,1.025-.634,1.533-.11.257-.248.5-.351.761-.085.218-.06.321.143.415a.668.668,0,0,1,.228.167.509.509,0,0,0,.388.2.54.54,0,0,0,.608-.477c.041-.194.041-.4.063-.594.029-.257.044-.517.1-.77.066-.307.165-.608.249-.911l.813-2.919c.058-.209.117-.418.176-.627.016-.054.037-.117.111-.1a.324.324,0,0,1,.216.141c.294.473.587.946.89,1.412a4.592,4.592,0,0,0,.539.752,5.282,5.282,0,0,0,1.071.963.618.618,0,0,1,.136.1.243.243,0,0,0,.264.057c.109-.031.218-.062.323-.1a.188.188,0,0,1,.191.025c.4.273.815.537,1.213.819a.65.65,0,0,0,.8.028.175.175,0,0,1,.212,0c.161.1.324.19.491.273a.571.571,0,0,0,.23.054,1.5,1.5,0,0,0,.3-.027c.269-.049.538-.1.805-.158a.971.971,0,0,0,.316-.117,3.968,3.968,0,0,1,.606-.254,4.447,4.447,0,0,0,.535-.281.174.174,0,0,0,.045-.271.664.664,0,0,0-.14-.135,1.476,1.476,0,0,0-.207-.141.575.575,0,0,1-.275-.625.364.364,0,0,0-.2-.381c-.111-.069-.227-.131-.337-.2a.391.391,0,0,1-.2-.5c.02-.087.063-.137.161-.127a.768.768,0,0,0,.578-.189,4.541,4.541,0,0,0,.363-.316,25.172,25.172,0,0,0,2.2-2.659.411.411,0,0,0-.234-.642c-.181-.052-.363-.1-.568-.16.052-.025.083-.04.114-.053.459-.2.915-.4,1.379-.584a.438.438,0,0,0,.163-.731.75.75,0,0,1-.2-.676A1.2,1.2,0,0,1,196.284,364.786Zm-14.024.811c.016-.213.028-.426.059-.636a.95.95,0,0,1,.106-.235l.044.009a1.855,1.855,0,0,1,.016.2c-.006.219-.017.439-.027.658,0,.067-.02.13-.1.129S182.256,365.661,182.26,365.6Zm-.872-2.9a.529.529,0,0,1,.027-.066c.02-.05.051-.1.109-.077.04.017.066.066.1.1l-.015.018a.987.987,0,0,1-.031.139,3.751,3.751,0,0,0-.142,1.278c0,.157.018.315.022.472a.684.684,0,0,1-.031.149c-.063-.025-.146-.032-.187-.078a.41.41,0,0,1-.079-.211c-.015-.1,0-.213-.012-.32A4.08,4.08,0,0,1,181.389,362.7Zm-1.625-1.5c.019-.055.027-.114.041-.171l.022-.007a.127.127,0,0,1,.018.044q.028.565.054,1.131c0,.009,0,.02,0,.026-.026.045-.054.09-.082.135-.03-.039-.08-.075-.087-.117A2.144,2.144,0,0,1,179.764,361.192Zm-2.606.491c.011-.027.066-.041.1-.052l.016,0h0c.017,0,.036.007.053.008a.589.589,0,0,1,.285.055c.017.008.034.016.051.025l.044.026a.2.2,0,0,1,.093.1.186.186,0,0,1-.032.133c-.009.014-.074,0-.107-.014-.144-.06-.284-.128-.428-.187C177.188,361.756,177.135,361.741,177.158,361.684Zm-.134,1.632a.991.991,0,0,1,.463-.029,2.523,2.523,0,0,1,.965.4l.022.015c.074.055.11.138.07.18-.058.061-.122.026-.178-.008a3.88,3.88,0,0,0-.993-.411c-.119-.032-.235-.079-.351-.12Zm-.2,1.974a.717.717,0,0,1-.136-.067.7.7,0,0,1,.346-.073,6.274,6.274,0,0,1,1.319.152,4.444,4.444,0,0,1,1.24.466c.028.016.056.034.083.052a.105.105,0,0,1,.053.136.108.108,0,0,1-.134.061.409.409,0,0,1-.1-.034,5.927,5.927,0,0,0-2.156-.592C177.162,365.371,176.991,365.326,176.821,365.289Zm3.111,3.2c.045.02.1.023.144.044.075.034.086.091.019.135a.385.385,0,0,1-.187.061.766.766,0,0,1-.41-.133,2.9,2.9,0,0,1-.627-.48,1.007,1.007,0,0,1-.074-.106.57.57,0,0,1,.348.112C179.4,368.243,179.668,368.364,179.931,368.485Zm-1.33.674c-.005.075-.061.091-.122.088a1.493,1.493,0,0,1-.74-.256.472.472,0,0,1-.092-.113l.016-.027c.046.008.093.012.138.024.232.061.463.126.7.186C178.555,369.076,178.606,369.09,178.6,369.16Zm2.3.9a1.71,1.71,0,0,1-.756.745,2.839,2.839,0,0,1-.308.115.08.08,0,0,1-.05-.012l-.017-.007c0-.01.007-.022.011-.032a.055.055,0,0,1,.016-.026c.131-.1.265-.2.4-.3a2.221,2.221,0,0,0,.587-.675.147.147,0,0,1,.111-.059c.026,0,.051.052.076.081A1.288,1.288,0,0,1,180.9,370.062Zm1.855-1.31a.261.261,0,0,1-.111.029,3.179,3.179,0,0,0-1.288.289c-.48.193-.952.407-1.439.579a6.052,6.052,0,0,1-2.3.3c-.2-.009-.4-.034-.6-.052v-.024c.3-.026.591-.058.887-.079a8.067,8.067,0,0,0,2.781-.691c.363-.163.737-.3,1.113-.429a1.9,1.9,0,0,1,.783-.1.465.465,0,0,1,.184.055C182.83,368.663,182.822,368.722,182.759,368.752Zm-2.61-2.575c.023-.092.053-.111.149-.09.031.007.064.012.1.018a.143.143,0,0,1,.117.178.084.084,0,0,1-.143.046C180.3,366.279,180.228,366.232,180.149,366.178Zm2.907,1.269c-.012.028-.055.044-.079.062a.328.328,0,0,1-.073-.022c-.138-.081-.278-.16-.414-.245a7.385,7.385,0,0,1-1.186-1.111c-.26-.257-.516-.52-.757-.8a4.4,4.4,0,0,1-.385-.536,15.793,15.793,0,0,1-1.212-2.333c-.243-.562-.513-1.112-.766-1.67-.113-.249-.214-.5-.314-.758-.012-.028.011-.071.018-.107.032.017.08.026.095.053a30.512,30.512,0,0,1,1.487,2.974,12.246,12.246,0,0,0,1.03,1.874,4.645,4.645,0,0,0,.556.673c.254.275.524.536.786.805.171.174.329.361.511.523.157.139.339.251.507.377a1.32,1.32,0,0,1,.167.146A.1.1,0,0,1,183.056,367.447Zm10.146-2.966c.113-.156.223-.315.344-.465.034-.042.13-.095.146-.081.061.052,0,.113-.028.161-.117.171-.237.341-.361.508a.125.125,0,0,1-.1.037c-.019,0-.034-.047-.049-.068A.716.716,0,0,1,193.2,364.481Zm-2.586,1.847a.547.547,0,0,1,.077-.149c.288-.434.579-.865.864-1.3.078-.12.14-.248.213-.371a1.626,1.626,0,0,1,.1-.139l.044.014a2.287,2.287,0,0,1-.042.3,2.47,2.47,0,0,1-.379.733c-.2.292-.407.579-.614.866a.594.594,0,0,1-.128.136.125.125,0,0,1-.11.007A.111.111,0,0,1,190.616,366.328Zm-1.377-8c.307-.118.627-.2.942-.3a.746.746,0,0,1,.122-.02l.011.025c-.878.426-1.642,1.034-2.47,1.539l-.03-.016a.77.77,0,0,1,.052-.165,1.508,1.508,0,0,1,.434-.5A4.69,4.69,0,0,1,189.239,358.332Zm.154,2.681a8.529,8.529,0,0,0-1.694.831c-.248.152-.509.285-.765.423-.025.014-.066,0-.1,0a.266.266,0,0,1,0-.09,1,1,0,0,1,.467-.54,11.011,11.011,0,0,1,2.04-.891,1.009,1.009,0,0,1,.289-.038c.039,0,.078.044.133.079-.045.052-.067.1-.1.114A2.383,2.383,0,0,1,189.392,361.013Zm.135,4.581a2.655,2.655,0,0,1-.6,1.321.752.752,0,0,1-.125.138.112.112,0,0,1-.1.012c-.027-.011-.042-.05-.063-.076a1.055,1.055,0,0,1,.052-.125l.692-1.205a.885.885,0,0,1,.037-.09.309.309,0,0,1,.074-.057A.224.224,0,0,1,189.527,365.594Zm-2.037-1.9a1.5,1.5,0,0,1-.15.144c-.24.174-.487.34-.726.516-.122.09-.232.2-.35.292a.393.393,0,0,1-.13.071.1.1,0,0,1-.093-.021.123.123,0,0,1,0-.1.222.222,0,0,1,.06-.077,4.56,4.56,0,0,1,1.071-.779A.383.383,0,0,1,187.49,363.689Zm-.711-8.748c.023.013.057.022.066.042a2.215,2.215,0,0,1,.264,1.123c0,.11,0,.22,0,.33a.146.146,0,0,1-.025.09.139.139,0,0,1-.1.034c-.02,0-.048-.042-.052-.069a1.878,1.878,0,0,1-.013-.24,5.8,5.8,0,0,0-.16-1.242C186.755,354.989,186.772,354.963,186.779,354.941Zm-2.063.95a.955.955,0,0,1,.157.109,4.15,4.15,0,0,1,.775,1.073q.249.521.477,1.054a.563.563,0,0,1-.031.459.152.152,0,0,1-.114.074c-.033,0-.08-.047-.1-.085-.085-.193-.16-.39-.24-.584-.225-.537-.448-1.076-.681-1.609a2.388,2.388,0,0,0-.2-.3,1.22,1.22,0,0,1-.077-.159Zm-1.088,2.865a2.918,2.918,0,0,1,.541.552,10.363,10.363,0,0,1,.984,1.766,2.046,2.046,0,0,1,.08.265.874.874,0,0,1,.017.133l.015.006c-.043.122-.082.246-.132.367-.013.031-.07.074-.087.066-.047-.021-.107-.058-.12-.1a10.759,10.759,0,0,0-.962-2.308c-.111-.2-.226-.391-.341-.585-.02-.033-.054-.058-.07-.092a.446.446,0,0,1-.017-.106A.315.315,0,0,1,183.628,358.756Zm-.058,2.64a.106.106,0,0,1-.1-.024c-.068-.134-.126-.273-.187-.41.023-.041.032-.08.055-.09a.1.1,0,0,1,.09.014.667.667,0,0,1,.21.42C183.64,361.333,183.6,361.382,183.57,361.4Zm.336.789c-.017-.057-.036-.113-.047-.171,0-.024.014-.051.021-.076.023.007.058.008.068.024a1.624,1.624,0,0,1,.2.322,9.3,9.3,0,0,1,.443,1.513c.011.055.014.112.02.168h-.007c0,.03,0,.059,0,.089,0,.063-.026.116-.095.118s-.09-.052-.1-.113c-.036-.2-.066-.394-.119-.584C184.169,363.043,184.035,362.615,183.906,362.185Zm.984,4.182c-.115.511-.26,1.014-.393,1.521a.562.562,0,0,1-.064.165.175.175,0,0,1-.11.063c-.015,0-.041-.053-.061-.083a4.177,4.177,0,0,1,.155-1.059,13.931,13.931,0,0,1,.48-2.048c.1-.319.171-.651.285-.966.09-.251.146-.508.22-.762.1-.359.238-.711.344-1.07.14-.48.262-.964.4-1.445.046-.163.108-.321.165-.48.117-.324.233-.649.355-.971.568-1.51,1.21-2.989,1.863-4.463a3.46,3.46,0,0,1,.418-.63c.012-.017.044-.017.071-.023l.011,0h0l.006.019c.007.02.015.041.007.051a4.9,4.9,0,0,0-.33.853c-.291.659-.582,1.318-.856,1.984-.343.833-.686,1.667-1,2.512-.23.619-.421,1.251-.611,1.883-.117.389-.183.794-.3,1.185-.162.557-.35,1.105-.517,1.661C185.222,364.955,185.049,365.659,184.89,366.367Zm2.513,6.282a.21.21,0,0,1-.031-.047,5.852,5.852,0,0,0-.576-1.135c-.03-.049-.081-.1-.016-.157.049-.044.122-.029.176.044a2.463,2.463,0,0,1,.377.715c.044.139.084.279.122.419C187.477,372.572,187.469,372.593,187.4,372.649Zm4.021.9a6.226,6.226,0,0,1-.636-.154,8.114,8.114,0,0,1-2.608-1.466c-.221-.189-.463-.353-.694-.53-.151-.117-.3-.238-.448-.354q-.649-.5-1.3-1c-.089-.069-.185-.13-.27-.2a.172.172,0,0,1-.037-.087c0-.012-.007-.023-.01-.033h0l.045-.018a.185.185,0,0,1,.074-.017.227.227,0,0,1,.113.049q.8.589,1.589,1.183c.093.069.183.143.276.213.31.235.631.458.931.705a9.131,9.131,0,0,0,1.868,1.145c.343.165.688.328,1.031.492.031.015.059.032.089.049Zm-.6-4.34c-.162-.058-.32-.126-.482-.182-.2-.069-.406-.131-.608-.2l-.026-.006c-.056-.014-.093-.047-.085-.106a.086.086,0,0,1,.109-.079,2.973,2.973,0,0,1,.5.13c.251.106.493.236.734.363a1.448,1.448,0,0,1,.2.15l-.012.023C191.044,369.275,190.934,369.247,190.827,369.21Zm.279,2.864c-.015.029-.022.074-.045.084a1.386,1.386,0,0,1-.286.106,2.32,2.32,0,0,1-.323.025c-.074-.006-.151-.008-.227-.019a.263.263,0,0,1-.124-.044.319.319,0,0,1-.058-.108c.034-.017.068-.048.1-.05.289-.013.579-.021.869-.028A.275.275,0,0,1,191.106,372.074Zm-1.3-1.238a2.656,2.656,0,0,1,.313.018l.008.057a1.689,1.689,0,0,1-.266.106,4.824,4.824,0,0,1-1.422.054.307.307,0,0,1-.149-.05.126.126,0,0,1-.044-.109.123.123,0,0,1,.1-.067A9.074,9.074,0,0,0,189.8,370.836Zm3.486-2.44c-.157-.017-.31-.058-.467-.073q-.773-.072-1.546-.13c-.142-.011-.286,0-.429,0-.044,0-.085-.04-.128-.062.031-.034.058-.093.094-.1.187-.036.375-.058.563-.083a1.012,1.012,0,0,1,.133,0l0-.028c.337.049.677.087,1.012.149.268.05.531.129.794.2.031.009.054.047.081.071C193.364,368.355,193.324,368.4,193.289,368.4Zm1.336-3.553a16.265,16.265,0,0,0-2.545,1.491c-.174.123-.329.275-.5.406-.251.2-.5.388-.761.576a9.182,9.182,0,0,1-1.5.872,4.683,4.683,0,0,1-1.212.384,8.57,8.57,0,0,1-1.392.155l-.961-.066c-.061,0-.117-.025-.118-.1s.058-.089.119-.089c.1,0,.2-.006.294,0a4.621,4.621,0,0,0,1.453-.107,8.562,8.562,0,0,0,1.376-.4,7.855,7.855,0,0,0,1.543-.778c.146-.1.289-.209.431-.318a15.121,15.121,0,0,1,2.771-1.783c.312-.146.641-.256.963-.378.028-.01.07.02.1.031C194.67,364.778,194.655,364.827,194.625,364.842Z" transform="translate(-34.603 -15.551)" fill="#f4eee2"/>
  </g>
</svg>
